<svg width="37" height="37" viewBox="0 0 37 37" fill="none" xmlns="http://www.w3.org/2000/svg">
<rect x="0.5" y="0.5" width="36" height="36" rx="18" stroke="black"/>
<path fill-rule="evenodd" clip-rule="evenodd" d="M18.0485 11.2432C18.6505 11.8453 18.6505 12.8214 18.0485 13.4235L14.5136 16.9583H26.2083C27.0598 16.9583 27.75 17.6486 27.75 18.5C27.75 19.3514 27.0598 20.0417 26.2083 20.0417H14.5136L18.0485 23.5765C18.6505 24.1786 18.6505 25.1547 18.0485 25.7568C17.4464 26.3589 16.4703 26.3589 15.8682 25.7568L9.70154 19.5901C9.09949 18.9881 9.09949 18.0119 9.70154 17.4099L15.8682 11.2432C16.4703 10.6412 17.4464 10.6412 18.0485 11.2432Z" fill="black"/>
</svg>
