<svg width="28" height="26" viewBox="0 0 28 26" fill="none" xmlns="http://www.w3.org/2000/svg">
<path d="M3.31348 0C4.24956 0 5.0827 0.595459 5.38477 1.48145L5.96973 3.19922H21.5615C24.8406 3.19922 27.4988 5.85774 27.499 9.13672V14.3154C27.4989 17.5945 24.8406 20.2529 21.5615 20.2529H12.207C9.33288 20.2529 6.87158 18.194 6.36328 15.3652L4.38867 4.37305L3.60938 2.08691C3.56623 1.96032 3.44722 1.875 3.31348 1.875H0.9375C0.419733 1.875 0 1.45527 0 0.9375C0 0.419733 0.419733 0 0.9375 0H3.31348ZM16.5586 7.88867C16.0409 7.88873 15.6211 8.30844 15.6211 8.82617V10.9854H13.4619C12.9442 10.9854 12.5244 11.4051 12.5244 11.9229C12.5246 12.4405 12.9443 12.8603 13.4619 12.8604H15.6211V15.0195C15.6212 15.5371 16.041 15.957 16.5586 15.957C17.0763 15.957 17.496 15.5372 17.4961 15.0195V12.8604H19.6553C20.1729 12.8604 20.5926 12.4405 20.5928 11.9229C20.5928 11.4051 20.173 10.9854 19.6553 10.9854H17.4961V8.82617C17.4961 8.3084 17.0764 7.88867 16.5586 7.88867Z" fill="black"/>
<path fill-rule="evenodd" clip-rule="evenodd" d="M10.6212 23.75C10.6212 22.7145 11.4607 21.875 12.4962 21.875H12.5087C13.5442 21.875 14.3837 22.7145 14.3837 23.75C14.3837 24.7855 13.5442 25.625 12.5087 25.625H12.4962C11.4607 25.625 10.6212 24.7855 10.6212 23.75Z" fill="black"/>
<path fill-rule="evenodd" clip-rule="evenodd" d="M20.6212 23.75C20.6212 22.7145 21.4607 21.875 22.4962 21.875H22.5087C23.5443 21.875 24.3837 22.7145 24.3837 23.75C24.3837 24.7855 23.5443 25.625 22.5087 25.625H22.4962C21.4607 25.625 20.6212 24.7855 20.6212 23.75Z" fill="black"/>
</svg>
