<svg width="30" height="30" viewBox="0 0 30 30" fill="none" xmlns="http://www.w3.org/2000/svg">
<path d="M4.56738 1.875C5.50347 1.875 6.33661 2.47046 6.63867 3.35645L7.22363 5.07422H22.8154C26.0945 5.07422 28.7527 7.73274 28.7529 11.0117V16.1904C28.7528 19.4695 26.0945 22.1279 22.8154 22.1279H13.4609C10.5868 22.1279 8.12549 20.069 7.61719 17.2402L5.64258 6.24805L4.86328 3.96191C4.82014 3.83532 4.70112 3.75 4.56738 3.75H2.19141C1.67364 3.75 1.25391 3.33027 1.25391 2.8125C1.25391 2.29473 1.67364 1.875 2.19141 1.875H4.56738ZM17.8125 9.76367C17.2948 9.76373 16.875 10.1834 16.875 10.7012V12.8604H14.7158C14.1981 12.8604 13.7783 13.2801 13.7783 13.7979C13.7785 14.3155 14.1982 14.7353 14.7158 14.7354H16.875V16.8945C16.8751 17.4121 17.2949 17.832 17.8125 17.832C18.3302 17.832 18.7499 17.4122 18.75 16.8945V14.7354H20.9092C21.4268 14.7354 21.8465 14.3155 21.8467 13.7979C21.8467 13.2801 21.4269 12.8604 20.9092 12.8604H18.75V10.7012C18.75 10.1834 18.3303 9.76367 17.8125 9.76367Z" fill="#F9F5F0"/>
<path fill-rule="evenodd" clip-rule="evenodd" d="M11.875 25.625C11.875 24.5895 12.7145 23.75 13.75 23.75H13.7625C14.798 23.75 15.6375 24.5895 15.6375 25.625C15.6375 26.6605 14.798 27.5 13.7625 27.5H13.75C12.7145 27.5 11.875 26.6605 11.875 25.625Z" fill="#F9F5F0"/>
<path fill-rule="evenodd" clip-rule="evenodd" d="M21.875 25.625C21.875 24.5895 22.7145 23.75 23.75 23.75H23.7625C24.798 23.75 25.6375 24.5895 25.6375 25.625C25.6375 26.6605 24.798 27.5 23.7625 27.5H23.75C22.7145 27.5 21.875 26.6605 21.875 25.625Z" fill="#F9F5F0"/>
</svg>
