<svg width="28" height="26" viewBox="0 0 28 26" fill="none" xmlns="http://www.w3.org/2000/svg">
<path fill-rule="evenodd" clip-rule="evenodd" d="M0 0.9375C0 0.419733 0.419733 0 0.9375 0H3.31411C4.25029 0 5.08269 0.595743 5.38468 1.48188L5.97008 3.19969H21.562C24.8412 3.19969 27.4995 5.858 27.4995 9.13719V14.3152C27.4995 17.5944 24.8412 20.2527 21.562 20.2527H12.2071C9.3328 20.2527 6.87124 18.1939 6.36313 15.3648L4.3889 4.37259L3.6099 2.0867C3.56676 1.96011 3.44785 1.875 3.31411 1.875H0.9375C0.419733 1.875 0 1.45527 0 0.9375Z" fill="black"/>
<path fill-rule="evenodd" clip-rule="evenodd" d="M10.6216 23.75C10.6216 22.7145 11.461 21.875 12.4966 21.875H12.5091C13.5446 21.875 14.3841 22.7145 14.3841 23.75C14.3841 24.7855 13.5446 25.625 12.5091 25.625H12.4966C11.461 25.625 10.6216 24.7855 10.6216 23.75Z" fill="black"/>
<path fill-rule="evenodd" clip-rule="evenodd" d="M20.6216 23.75C20.6216 22.7145 21.461 21.875 22.4966 21.875H22.5091C23.5446 21.875 24.3841 22.7145 24.3841 23.75C24.3841 24.7855 23.5446 25.625 22.5091 25.625H22.4966C21.461 25.625 20.6216 24.7855 20.6216 23.75Z" fill="black"/>
</svg>
