<svg width="21" height="24" viewBox="0 0 21 24" fill="none" xmlns="http://www.w3.org/2000/svg">
<path d="M16.9453 0C18.8168 8.90264e-05 20.3338 1.51718 20.334 3.38867V20.5508C20.3338 22.5183 18.3797 23.8608 16.5645 23.2061L16.252 23.0811C15.561 22.8224 14.7937 22.8438 14.1162 23.1455L13.9873 23.2031C13.1737 23.5655 12.2443 23.5655 11.4307 23.2031L11.0859 23.0498C10.501 22.7894 9.83298 22.7894 9.24805 23.0498L8.90332 23.2031C8.08972 23.5655 7.16028 23.5655 6.34668 23.2031L6.21777 23.1455C5.54024 22.8438 4.77298 22.8224 4.08203 23.0811L3.76953 23.2061C1.95426 23.8608 0.000154756 22.5183 0 20.5508V3.38867C0.000219536 1.51718 1.51715 8.77382e-05 3.38867 0H16.9453ZM5.64844 14.9688C5.18059 14.9688 4.80093 15.3476 4.80078 15.8154C4.80078 16.2834 5.1805 16.6631 5.64844 16.6631H14.6855C15.1535 16.6631 15.5332 16.2834 15.5332 15.8154C15.5331 15.3476 15.1534 14.9688 14.6855 14.9688H5.64844ZM13.5459 7.26758C13.1921 6.96137 12.6568 6.99968 12.3506 7.35352L9.29395 10.8848C9.18131 11.0149 8.97981 11.0149 8.86719 10.8848L7.9834 9.86426C7.67719 9.51042 7.14192 9.47114 6.78809 9.77734C6.43426 10.0835 6.39596 10.6188 6.70215 10.9727L7.58594 11.9941C8.37427 12.9049 9.78678 12.9048 10.5752 11.9941L13.6318 8.46191C13.9378 8.10818 13.8994 7.57378 13.5459 7.26758Z" fill="black"/>
</svg>
