<svg width="41" height="47" viewBox="0 0 41 47" fill="none" xmlns="http://www.w3.org/2000/svg">
<path d="M33.8906 0C37.6339 0.000178066 40.668 3.03496 40.668 6.77832V41.1016C40.6677 45.1637 36.5031 47.8934 32.7783 46.2725C31.3276 45.6411 29.6777 45.6483 28.2324 46.292L27.9736 46.4072C26.3466 47.1317 24.4883 47.1318 22.8613 46.4072L22.1729 46.0996C21.0026 45.5784 19.6653 45.5784 18.4951 46.0996L17.8066 46.4072C16.1796 47.1318 14.3214 47.1317 12.6943 46.4072L12.4355 46.292C10.9903 45.6483 9.34034 45.6411 7.88965 46.2725C4.16492 47.8934 0.000319505 45.1637 0 41.1016V6.77832C0 3.03496 3.03402 0.000175492 6.77734 0H33.8906ZM11.2969 29.9365C10.361 29.9365 9.60156 30.696 9.60156 31.6318C9.6018 32.5675 10.3612 33.3262 11.2969 33.3262H29.3711C30.3068 33.3262 31.0662 32.5675 31.0664 31.6318C31.0664 30.696 30.307 29.9365 29.3711 29.9365H11.2969ZM27.0918 14.5342C26.3841 13.9218 25.3136 13.9994 24.7012 14.707L18.5889 21.7705C18.3636 22.0307 17.9596 22.0306 17.7344 21.7705L15.9668 19.7275C15.3544 19.02 14.2848 18.9433 13.5771 19.5557C12.8695 20.1681 12.7919 21.2376 13.4043 21.9453L15.1719 23.9883C16.7487 25.81 19.5746 25.8101 21.1514 23.9883L27.2637 16.9248C27.876 16.2172 27.7993 15.1466 27.0918 14.5342Z" fill="#060771"/>
</svg>
