<svg width="27" height="17" viewBox="0 0 27 17" fill="none" xmlns="http://www.w3.org/2000/svg">
<path d="M23.4375 0C25.336 0 26.875 1.53902 26.875 3.4375V3.93066C26.875 4.60913 26.6741 5.27236 26.2979 5.83691L25.6045 6.87695C24.9747 7.82167 24.9747 9.05333 25.6045 9.99805L26.2979 11.0381C26.6741 11.6026 26.875 12.2659 26.875 12.9443V13.4375C26.875 15.336 25.336 16.875 23.4375 16.875H3.4375C1.53902 16.875 0 15.336 0 13.4375V12.9443C2.04603e-05 12.2659 0.200884 11.6026 0.577148 11.0381L1.27051 9.99805C1.90032 9.05333 1.90032 7.82167 1.27051 6.87695L0.577148 5.83691C0.200884 5.27236 2.03427e-05 4.60912 0 3.93066V3.4375C0 1.53902 1.53902 0 3.4375 0H23.4375ZM15.9375 10.3125C15.2471 10.3125 14.6875 10.8721 14.6875 11.5625C14.6875 12.2529 15.2471 12.8125 15.9375 12.8125H15.9502C16.6405 12.8124 17.2002 12.2528 17.2002 11.5625C17.2002 10.8722 16.6405 10.3126 15.9502 10.3125H15.9375ZM17.1621 4.68066C16.796 4.31502 16.2029 4.31491 15.8369 4.68066L9.64941 10.8682C9.28338 11.2343 9.28333 11.8282 9.64941 12.1943C10.0155 12.5603 10.6095 12.5603 10.9756 12.1943L17.1621 6.00684C17.5282 5.64072 17.5282 5.04678 17.1621 4.68066ZM10.9375 4.0625C10.2471 4.0625 9.6875 4.62214 9.6875 5.3125C9.6875 6.00286 10.2471 6.5625 10.9375 6.5625H10.9502C11.6405 6.56239 12.2002 6.00279 12.2002 5.3125C12.2002 4.62221 11.6405 4.06261 10.9502 4.0625H10.9375Z" fill="black"/>
</svg>
