<svg width="24" height="25" viewBox="0 0 24 25" fill="none" xmlns="http://www.w3.org/2000/svg">
<path d="M20 0C22.0711 0 23.75 1.67893 23.75 3.75V21.25C23.75 23.3211 22.0711 25 20 25H3.75C1.67893 25 0 23.3211 0 21.25V3.75C0 1.67893 1.67893 0 3.75 0H20ZM5.625 17.1875C5.10723 17.1875 4.6875 17.6072 4.6875 18.125C4.6875 18.6428 5.10723 19.0625 5.625 19.0625H5.6377C6.15537 19.0624 6.5752 18.6427 6.5752 18.125C6.5752 17.6073 6.15537 17.1876 5.6377 17.1875H5.625ZM9.375 17.1875C8.85723 17.1875 8.4375 17.6072 8.4375 18.125C8.4375 18.6428 8.85723 19.0625 9.375 19.0625H18.125C18.6428 19.0625 19.0625 18.6428 19.0625 18.125C19.0625 17.6072 18.6428 17.1875 18.125 17.1875H9.375ZM5.625 11.5625C5.10723 11.5625 4.6875 11.9822 4.6875 12.5C4.6875 13.0178 5.10723 13.4375 5.625 13.4375H5.6377C6.15537 13.4374 6.5752 13.0177 6.5752 12.5C6.5752 11.9823 6.15537 11.5626 5.6377 11.5625H5.625ZM9.375 11.5625C8.85723 11.5625 8.4375 11.9822 8.4375 12.5C8.4375 13.0178 8.85723 13.4375 9.375 13.4375H18.125C18.6428 13.4375 19.0625 13.0178 19.0625 12.5C19.0625 11.9822 18.6428 11.5625 18.125 11.5625H9.375ZM5.625 5.9375C5.10723 5.9375 4.6875 6.35723 4.6875 6.875C4.6875 7.39277 5.10723 7.8125 5.625 7.8125H5.6377C6.15537 7.81239 6.5752 7.3927 6.5752 6.875C6.5752 6.3573 6.15537 5.93761 5.6377 5.9375H5.625ZM9.375 5.9375C8.85723 5.9375 8.4375 6.35723 8.4375 6.875C8.4375 7.39277 8.85723 7.8125 9.375 7.8125H18.125C18.6428 7.8125 19.0625 7.39277 19.0625 6.875C19.0625 6.35723 18.6428 5.9375 18.125 5.9375H9.375Z" fill="black"/>
</svg>
