<svg width="37" height="37" viewBox="0 0 37 37" fill="none" xmlns="http://www.w3.org/2000/svg">
<circle cx="18.5" cy="18.5" r="18" stroke="black"/>
<path d="M25.5417 10.0502C25.0444 10.0502 24.5675 10.2477 24.2159 10.5993C23.8642 10.9509 23.6667 11.4277 23.6667 11.9249C23.6667 12.4222 23.8642 12.899 24.2159 13.2506C24.5675 13.6022 25.0444 13.7997 25.5417 13.7997C26.0389 13.7997 26.5159 13.6022 26.8675 13.2506C27.2191 12.899 27.4166 12.4222 27.4166 11.9249C27.4166 11.4277 27.2191 10.9509 26.8675 10.5993C26.5159 10.2477 26.0389 10.0502 25.5417 10.0502ZM22.4167 11.9249C22.4166 11.1918 22.6744 10.482 23.1448 9.91974C23.6152 9.35744 24.2685 8.97843 24.9901 8.84904C25.7118 8.71965 26.456 8.84812 27.0926 9.21195C27.7291 9.57579 28.2174 10.1518 28.4721 10.8393C28.7267 11.5268 28.7315 12.2819 28.4856 12.9725C28.2397 13.6632 27.7588 14.2454 27.1269 14.6172C26.495 14.9891 25.7525 15.127 25.0293 15.0068C24.306 14.8866 23.648 14.5159 23.1705 13.9597L14.7731 17.8591C14.9662 18.4708 14.9662 19.1271 14.7731 19.7388L23.1705 23.6383C23.6753 23.0513 24.38 22.6726 25.1482 22.5755C25.9163 22.4785 26.6932 22.67 27.3281 23.113C27.9631 23.556 28.411 24.2189 28.585 24.9733C28.759 25.7276 28.6467 26.5197 28.2699 27.196C27.8931 27.8723 27.2786 28.3847 26.5455 28.6338C25.8124 28.8829 25.013 28.851 24.302 28.5444C23.5911 28.2377 23.0194 27.6781 22.6976 26.9739C22.3759 26.2698 22.327 25.4713 22.5605 24.7331L14.1631 20.8337C13.7474 21.3181 13.1933 21.6636 12.5754 21.8237C11.9574 21.9838 11.3052 21.9508 10.7066 21.7292C10.1079 21.5076 9.59154 21.1079 9.22683 20.5841C8.86213 20.0602 8.66663 19.4373 8.66663 18.799C8.66663 18.1607 8.86213 17.5377 9.22683 17.0139C9.59154 16.49 10.1079 16.0904 10.7066 15.8688C11.3052 15.6472 11.9574 15.6142 12.5754 15.7743C13.1933 15.9344 13.7474 16.2799 14.1631 16.7643L22.5605 12.8648C22.4649 12.5607 22.4164 12.2437 22.4167 11.9249ZM11.7919 16.9242C11.2946 16.9242 10.8177 17.1218 10.4661 17.4733C10.1145 17.8249 9.91694 18.3018 9.91694 18.799C9.91694 19.2962 10.1145 19.773 10.4661 20.1246C10.8177 20.4762 11.2946 20.6737 11.7919 20.6737C12.2892 20.6737 12.7661 20.4762 13.1177 20.1246C13.4693 19.773 13.6669 19.2962 13.6669 18.799C13.6669 18.3018 13.4693 17.8249 13.1177 17.4733C12.7661 17.1218 12.2892 16.9242 11.7919 16.9242ZM25.5417 23.7983C25.0444 23.7983 24.5675 23.9958 24.2159 24.3474C23.8642 24.699 23.6667 25.1758 23.6667 25.673C23.6667 26.1702 23.8642 26.6471 24.2159 26.9987C24.5675 27.3502 25.0444 27.5478 25.5417 27.5478C26.0389 27.5478 26.5159 27.3502 26.8675 26.9987C27.2191 26.6471 27.4166 26.1702 27.4166 25.673C27.4166 25.1758 27.2191 24.699 26.8675 24.3474C26.5159 23.9958 26.0389 23.7983 25.5417 23.7983Z" fill="black"/>
</svg>
