<svg width="26" height="26" viewBox="0 0 26 26" fill="none" xmlns="http://www.w3.org/2000/svg">
<path d="M12.5781 1.00653C13.4101 0.17478 14.6097 -0.173677 15.7578 0.0827026L21.5381 1.37372C22.8381 1.66407 23.8533 2.67914 24.1436 3.97919L25.4346 9.75946C25.6909 10.9076 25.3425 12.1072 24.5107 12.9391L12.9395 24.5104C11.5971 25.8528 9.42057 25.8527 8.07812 24.5104L1.00684 17.4391C-0.335559 16.0967 -0.33558 13.9202 1.00684 12.5778L12.5781 1.00653ZM18.4268 5.22333C17.3913 5.22337 16.5518 6.06282 16.5518 7.09833C16.5519 8.13373 17.3913 8.97329 18.4268 8.97333H18.4395C19.4749 8.97326 20.3143 8.13371 20.3145 7.09833C20.3145 6.06283 19.4749 5.22339 18.4395 5.22333H18.4268Z" fill="black"/>
</svg>
