<svg width="253" height="53" viewBox="0 0 253 53" fill="none" xmlns="http://www.w3.org/2000/svg">
<path d="M14.3086 15.7109V20.8672H22.2578V24.3633H14.3086V34.4609C14.3086 35.2422 14.3997 35.8997 14.582 36.4336C14.7773 36.9544 15.0443 37.3646 15.3828 37.6641C15.7214 37.9766 16.125 38.1979 16.5938 38.3281C17.0625 38.4583 17.5768 38.5234 18.1367 38.5234C18.5404 38.5234 18.957 38.5039 19.3867 38.4648C19.8164 38.4258 20.2331 38.3737 20.6367 38.3086C21.0273 38.2565 21.3919 38.1979 21.7305 38.1328C22.082 38.0547 22.375 37.9896 22.6094 37.9375L23.1172 41.1602C22.7786 41.3685 22.3685 41.5508 21.8867 41.707C21.418 41.8503 20.9102 41.974 20.3633 42.0781C19.8164 42.1823 19.2435 42.2604 18.6445 42.3125C18.0586 42.3776 17.4727 42.4102 16.8867 42.4102C15.819 42.4102 14.8359 42.2669 13.9375 41.9805C13.0521 41.681 12.2904 41.2188 11.6523 40.5938C11.0143 39.9818 10.513 39.194 10.1484 38.2305C9.79688 37.2669 9.62109 36.1081 9.62109 34.7539V24.3633H4.50391V20.8672H9.62109V15.7109H14.3086ZM38.8203 42.3906C37.2578 42.3906 35.8255 42.1302 34.5234 41.6094C33.2344 41.0885 32.1276 40.3659 31.2031 39.4414C30.2786 38.5299 29.5625 37.4557 29.0547 36.2188C28.5599 34.9688 28.3125 33.6211 28.3125 32.1758V31.375C28.3125 29.7214 28.5729 28.224 29.0938 26.8828C29.6146 25.5417 30.3307 24.3958 31.2422 23.4453C32.1536 22.4948 33.2083 21.7656 34.4062 21.2578C35.6172 20.737 36.9062 20.4766 38.2734 20.4766C39.7969 20.4766 41.1445 20.737 42.3164 21.2578C43.4883 21.7656 44.4714 22.4753 45.2656 23.3867C46.0599 24.3112 46.6589 25.4115 47.0625 26.6875C47.4661 27.9635 47.668 29.3568 47.668 30.8672V32.8789H33.0195V32.9766C33.1628 33.901 33.3841 34.6758 33.6836 35.3008C33.9831 35.9258 34.3932 36.4857 34.9141 36.9805C35.4349 37.5013 36.0469 37.9049 36.75 38.1914C37.4661 38.4779 38.2474 38.6211 39.0938 38.6211C40.2526 38.6211 41.3333 38.3997 42.3359 37.957C43.3385 37.5013 44.1654 36.8568 44.8164 36.0234L47.3164 38.4453C46.6133 39.4609 45.5326 40.3724 44.0742 41.1797C42.6289 41.987 40.8776 42.3906 38.8203 42.3906ZM38.2539 24.2656C37.5898 24.2656 36.9714 24.3893 36.3984 24.6367C35.8385 24.8711 35.3372 25.2096 34.8945 25.6523C34.4518 26.1081 34.0807 26.6549 33.7812 27.293C33.4818 27.931 33.2604 28.6536 33.1172 29.4609H43.0586V29.1484C43.0586 28.5365 42.9479 27.931 42.7266 27.332C42.5052 26.7201 42.1927 26.1862 41.7891 25.7305C41.3984 25.2878 40.9036 24.9362 40.3047 24.6758C39.7188 24.4023 39.0352 24.2656 38.2539 24.2656ZM62.1797 38.6406C62.7656 38.6406 63.3255 38.556 63.8594 38.3867C64.4062 38.2044 64.888 37.9505 65.3047 37.625C65.7083 37.2995 66.0273 36.9154 66.2617 36.4727C66.5091 36.0299 66.6328 35.5417 66.6328 35.0078H71.0273C71.0404 36.0365 70.806 37.0065 70.3242 37.918C69.8555 38.8164 69.2174 39.5911 68.4102 40.2422C67.5898 40.9193 66.6458 41.4531 65.5781 41.8438C64.5234 42.2214 63.4102 42.4102 62.2383 42.4102C60.6107 42.4102 59.1849 42.1302 57.9609 41.5703C56.75 40.9974 55.7409 40.2292 54.9336 39.2656C54.1133 38.3021 53.4948 37.1823 53.0781 35.9062C52.6615 34.6172 52.4531 33.2435 52.4531 31.7852V31.1016C52.4531 29.6562 52.6549 28.2891 53.0586 27C53.4753 25.7109 54.0938 24.5846 54.9141 23.6211C55.7344 22.6576 56.75 21.8958 57.9609 21.3359C59.1849 20.763 60.6042 20.4766 62.2188 20.4766C63.4948 20.4766 64.6732 20.6719 65.7539 21.0625C66.8477 21.4531 67.7852 22 68.5664 22.7031C69.3477 23.4062 69.9531 24.2461 70.3828 25.2227C70.8255 26.1992 71.0404 27.2734 71.0273 28.4453H66.6328C66.6328 27.8724 66.5221 27.332 66.3008 26.8242C66.0924 26.3164 65.793 25.8737 65.4023 25.4961C64.9987 25.1185 64.5169 24.819 63.957 24.5977C63.4102 24.3763 62.8177 24.2656 62.1797 24.2656C61.2031 24.2656 60.3893 24.4674 59.7383 24.8711C59.1003 25.2617 58.5924 25.776 58.2148 26.4141C57.8112 27.0521 57.5247 27.7812 57.3555 28.6016C57.1992 29.4219 57.1211 30.2552 57.1211 31.1016V31.7852C57.1211 32.6445 57.1992 33.4909 57.3555 34.3242C57.5247 35.1445 57.8047 35.8672 58.1953 36.4922C58.5729 37.1432 59.0872 37.6641 59.7383 38.0547C60.3893 38.4453 61.2031 38.6406 62.1797 38.6406ZM81.6719 23.875C81.9453 23.4583 82.2513 23.0742 82.5898 22.7227C82.9284 22.3711 83.2865 22.0651 83.6641 21.8047C84.25 21.375 84.8945 21.0495 85.5977 20.8281C86.3138 20.5938 87.069 20.4766 87.8633 20.4766C88.9701 20.4766 89.9792 20.6393 90.8906 20.9648C91.8151 21.2904 92.6029 21.7982 93.2539 22.4883C93.9049 23.1784 94.4062 24.0638 94.7578 25.1445C95.1224 26.2122 95.3047 27.4948 95.3047 28.9922V42H90.6367V28.9531C90.6367 28.1719 90.5391 27.4883 90.3438 26.9023C90.1615 26.3164 89.888 25.8411 89.5234 25.4766C89.1458 25.0859 88.6836 24.7995 88.1367 24.6172C87.6029 24.4219 86.9844 24.3242 86.2812 24.3242C85.7344 24.3242 85.2135 24.3893 84.7188 24.5195C84.237 24.6497 83.7943 24.8385 83.3906 25.0859C83.0521 25.2812 82.7331 25.5156 82.4336 25.7891C82.1471 26.0625 81.8932 26.3685 81.6719 26.707V42H77.0039V12H81.6719V23.875Z" fill="#060771"/>
<path d="M155.926 12H167.312V38.1328H173.719V42H155.926V38.1328H162.605V15.8867H155.926V12ZM192.547 42C192.404 41.7396 192.286 41.4271 192.195 41.0625C192.117 40.6849 192.046 40.2943 191.98 39.8906C191.655 40.2292 191.284 40.5547 190.867 40.8672C190.464 41.1667 190.008 41.4271 189.5 41.6484C188.992 41.8828 188.445 42.0651 187.859 42.1953C187.273 42.3255 186.642 42.3906 185.965 42.3906C184.871 42.3906 183.868 42.2344 182.957 41.9219C182.059 41.5964 181.29 41.1536 180.652 40.5938C180.001 40.0469 179.493 39.3893 179.129 38.6211C178.777 37.8398 178.602 37 178.602 36.1016C178.602 34.9427 178.829 33.9206 179.285 33.0352C179.754 32.1367 180.431 31.3945 181.316 30.8086C182.137 30.2617 183.146 29.8451 184.344 29.5586C185.555 29.2721 186.922 29.1289 188.445 29.1289H191.844V27.7031C191.844 27.1562 191.746 26.6615 191.551 26.2188C191.368 25.776 191.102 25.3919 190.75 25.0664C190.372 24.7409 189.91 24.4935 189.363 24.3242C188.829 24.1419 188.211 24.0508 187.508 24.0508C186.87 24.0508 186.31 24.1289 185.828 24.2852C185.359 24.4414 184.969 24.6562 184.656 24.9297C184.344 25.1771 184.109 25.4831 183.953 25.8477C183.81 26.1992 183.738 26.5768 183.738 26.9805H179.051C179.064 26.1341 179.266 25.3203 179.656 24.5391C180.047 23.7578 180.62 23.0677 181.375 22.4688C182.104 21.8568 183.003 21.375 184.07 21.0234C185.151 20.6589 186.382 20.4766 187.762 20.4766C188.999 20.4766 190.151 20.6328 191.219 20.9453C192.299 21.2448 193.23 21.694 194.012 22.293C194.793 22.8919 195.405 23.6536 195.848 24.5781C196.29 25.4896 196.512 26.5443 196.512 27.7422V37.1367C196.512 38.0872 196.577 38.9466 196.707 39.7148C196.85 40.4701 197.052 41.1211 197.312 41.668V42H192.547ZM186.863 38.6406C187.475 38.6406 188.042 38.5625 188.562 38.4062C189.096 38.25 189.578 38.0482 190.008 37.8008C190.438 37.5534 190.809 37.2734 191.121 36.9609C191.434 36.6484 191.674 36.3229 191.844 35.9844V32.0781H188.836C187.82 32.0781 186.941 32.1758 186.199 32.3711C185.457 32.5534 184.865 32.8203 184.422 33.1719C184.031 33.4714 183.738 33.8294 183.543 34.2461C183.361 34.6628 183.27 35.1315 183.27 35.6523C183.27 36.082 183.348 36.4857 183.504 36.8633C183.66 37.2279 183.888 37.5404 184.188 37.8008C184.487 38.0612 184.858 38.2695 185.301 38.4258C185.743 38.569 186.264 38.6406 186.863 38.6406ZM221.648 31.6484C221.648 32.625 221.577 33.556 221.434 34.4414C221.29 35.3268 221.082 36.1471 220.809 36.9023C220.496 37.8008 220.079 38.6146 219.559 39.3438C219.038 40.0729 218.413 40.6784 217.684 41.1602C217.098 41.5508 216.44 41.8503 215.711 42.0586C214.995 42.2799 214.214 42.3906 213.367 42.3906C212.508 42.3906 211.727 42.2865 211.023 42.0781C210.32 41.8698 209.689 41.5638 209.129 41.1602C208.842 40.9518 208.569 40.7305 208.309 40.4961C208.061 40.2487 207.82 39.9818 207.586 39.6953L207.371 42H203.152V12H207.82V22.9375C208.094 22.599 208.393 22.293 208.719 22.0195C209.044 21.7461 209.396 21.5052 209.773 21.2969C210.268 21.0234 210.809 20.8216 211.395 20.6914C211.993 20.5482 212.638 20.4766 213.328 20.4766C214.24 20.4766 215.073 20.6003 215.828 20.8477C216.596 21.082 217.286 21.4206 217.898 21.8633C218.419 22.2279 218.882 22.6771 219.285 23.2109C219.702 23.7318 220.066 24.3047 220.379 24.9297C220.796 25.8021 221.108 26.7721 221.316 27.8398C221.538 28.9076 221.648 30.0404 221.648 31.2383V31.6484ZM216.98 31.2383C216.98 30.6393 216.941 30.0599 216.863 29.5C216.798 28.9271 216.701 28.3932 216.57 27.8984C216.388 27.2995 216.147 26.7591 215.848 26.2773C215.561 25.7826 215.171 25.3659 214.676 25.0273C214.35 24.793 213.979 24.6172 213.562 24.5C213.146 24.3828 212.677 24.3242 212.156 24.3242C211.518 24.3242 210.945 24.4154 210.438 24.5977C209.93 24.7669 209.487 25.0143 209.109 25.3398C208.836 25.5612 208.589 25.8216 208.367 26.1211C208.159 26.4076 207.977 26.7201 207.82 27.0586V35.8086C208.003 36.1992 208.217 36.5573 208.465 36.8828C208.725 37.1953 209.018 37.4753 209.344 37.7227C209.708 37.9831 210.125 38.1914 210.594 38.3477C211.076 38.4909 211.609 38.5625 212.195 38.5625C212.729 38.5625 213.211 38.4974 213.641 38.3672C214.07 38.224 214.454 38.0352 214.793 37.8008C215.249 37.4753 215.62 37.0651 215.906 36.5703C216.206 36.0625 216.434 35.4961 216.59 34.8711C216.72 34.4023 216.818 33.8945 216.883 33.3477C216.948 32.8008 216.98 32.2344 216.98 31.6484V31.2383ZM240.906 36.2773C240.906 35.9128 240.822 35.5872 240.652 35.3008C240.496 35.0143 240.229 34.7409 239.852 34.4805C239.448 34.2461 238.921 34.0247 238.27 33.8164C237.618 33.6081 236.805 33.4128 235.828 33.2305C234.604 32.9831 233.484 32.6771 232.469 32.3125C231.466 31.9479 230.6 31.5052 229.871 30.9844C229.155 30.4896 228.595 29.9036 228.191 29.2266C227.788 28.5495 227.586 27.7617 227.586 26.8633C227.586 26.0039 227.788 25.1901 228.191 24.4219C228.608 23.6406 229.201 22.957 229.969 22.3711C230.724 21.7852 231.635 21.3229 232.703 20.9844C233.784 20.6458 234.982 20.4766 236.297 20.4766C237.703 20.4766 238.966 20.6523 240.086 21.0039C241.206 21.3424 242.156 21.8112 242.938 22.4102C243.706 23.0091 244.298 23.7188 244.715 24.5391C245.132 25.3594 245.34 26.2448 245.34 27.1953H240.672C240.672 26.8047 240.587 26.4336 240.418 26.082C240.262 25.7174 240.027 25.3919 239.715 25.1055C239.35 24.7669 238.882 24.5 238.309 24.3047C237.736 24.0964 237.065 23.9922 236.297 23.9922C235.594 23.9922 234.975 24.0703 234.441 24.2266C233.921 24.3698 233.491 24.5716 233.152 24.832C232.814 25.0664 232.56 25.3464 232.391 25.6719C232.221 25.9844 232.137 26.3164 232.137 26.668C232.137 27.0326 232.208 27.3646 232.352 27.6641C232.495 27.9505 232.749 28.2044 233.113 28.4258C233.452 28.6602 233.921 28.875 234.52 29.0703C235.132 29.2656 235.9 29.4414 236.824 29.5977C238.113 29.832 239.292 30.1185 240.359 30.457C241.427 30.7956 242.339 31.2122 243.094 31.707C243.849 32.2279 244.435 32.8398 244.852 33.543C245.268 34.2461 245.477 35.0794 245.477 36.043C245.477 36.9805 245.255 37.8398 244.812 38.6211C244.383 39.4023 243.771 40.0729 242.977 40.6328C242.169 41.1927 241.206 41.6289 240.086 41.9414C238.966 42.2539 237.723 42.4102 236.355 42.4102C234.832 42.4102 233.478 42.2083 232.293 41.8047C231.121 41.401 230.138 40.8672 229.344 40.2031C228.536 39.5521 227.924 38.8034 227.508 37.957C227.091 37.1107 226.883 36.2513 226.883 35.3789H231.414C231.453 36.0299 231.622 36.5833 231.922 37.0391C232.234 37.4818 232.625 37.8398 233.094 38.1133C233.549 38.3997 234.07 38.6081 234.656 38.7383C235.242 38.8555 235.835 38.9141 236.434 38.9141C237.241 38.9141 237.944 38.8294 238.543 38.6602C239.155 38.4909 239.643 38.263 240.008 37.9766C240.307 37.7422 240.529 37.4883 240.672 37.2148C240.828 36.9284 240.906 36.6159 240.906 36.2773Z" fill="#060771"/>
<path d="M117.109 3.4348L121.457 7.56522C123.087 9.08696 123.957 11.1522 123.957 13.4348C123.957 15.6087 124.826 17.6739 126.348 19.1957L126.891 19.7391L131.891 3.54348" fill="#BF1A1A"/>
<path d="M102.326 17.8913L108.304 17.6739C110.478 17.5652 112.652 18.4348 114.174 19.9565C115.696 21.4783 117.761 22.2391 119.935 22.2391H120.696L112.652 7.34781" fill="#BF1A1A"/>
<path d="M102.326 38.5435L106.348 34.1957C107.87 32.5653 109.935 31.587 112.109 31.587C114.283 31.587 116.239 30.6087 117.761 29.087L118.304 28.5435L102 23.8696" fill="#BF1A1A"/>
<path d="M117.109 52.8913L116.783 46.9131C116.674 44.7392 117.435 42.5652 118.957 40.9348C120.37 39.4131 121.239 37.2391 121.13 35.1739V34.4131L106.348 42.7826" fill="#BF1A1A"/>
<path d="M137.761 52.4565L133.304 48.5435C131.674 47.1305 130.696 45.0652 130.587 42.7826C130.478 40.6087 129.5 38.6522 127.978 37.1305L127.435 36.587L123.087 53" fill="#BF1A1A"/>
<path d="M151.891 37.3478L145.913 37.7826C143.739 38 141.565 37.2391 139.935 35.7174C138.304 34.3044 136.239 33.5435 134.065 33.6522H133.304L142 48.2174" fill="#060771"/>
<path d="M150.913 16.8044L147.109 21.3696C145.696 23 143.63 24.087 141.457 24.1957C139.283 24.3044 137.326 25.2826 135.913 26.9131L135.478 27.4565L152 31.3696" fill="#060771"/>
<path d="M135.587 3L136.13 8.97826C136.348 11.1522 135.696 13.3261 134.174 15.0652C132.761 16.6957 132.109 18.7609 132.217 20.9348L132.326 21.6956L146.674 12.6739" fill="#BF1A1A"/>
</svg>
